<?xml version="1.0" encoding="UTF-8" standalone="no"?><!-- Generator: Gravit.io --><svg xmlns="http://www.w3.org/2000/svg" xmlns:xlink="http://www.w3.org/1999/xlink" style="isolation:isolate" viewBox="0 0 256 256" width="256pt" height="256pt"><defs><clipPath id="_clipPath_jbHlCa7xLfyQ2mCxiHs7RWkXKhyTytdA"><rect width="256" height="256"/></clipPath></defs><g clip-path="url(#_clipPath_jbHlCa7xLfyQ2mCxiHs7RWkXKhyTytdA)"><rect width="256" height="256" style="fill:rgb(19,23,34)"/><path d=" M 217.216 64.658 L 25.856 256 L 0 230.144 L 191.342 38.784 L 152.558 0 L 256 0 L 256 103.442 L 217.216 64.658 Z " fill="rgb(8,153,129)"/><path d=" M 217.216 191.342 L 25.856 0 L 0 25.856 L 191.342 217.216 L 152.558 256 L 256 256 L 256 152.558 L 217.216 191.342 Z " fill="rgb(242,54,69)"/><path d=" M 38.784 64.658 L 230.144 256 L 256 230.144 L 64.658 38.784 L 103.442 0 L 0 0 L 0 103.442 L 38.784 64.658 Z " fill="rgb(178,181,190)"/><rect x="0" y="0" width="25" height="256" transform="matrix(1,0,0,1,0,0)" fill="rgb(42,46,57)"/><rect x="115.5" y="-115.5" width="25" height="256" transform="matrix(0,1,-1,0,140.5,-115.5)" fill="rgb(40,95,245)"/></g></svg>