<?xml version="1.0" encoding="UTF-8" standalone="no"?><!-- Generator: Gravit.io --><svg xmlns="http://www.w3.org/2000/svg" xmlns:xlink="http://www.w3.org/1999/xlink" style="isolation:isolate" viewBox="0 0 256 256" width="256pt" height="256pt"><defs><clipPath id="_clipPath_4a1wQnsOaR5iYdBYVCqnTgBLeyTE5gxT"><rect width="256" height="256"/></clipPath></defs><g clip-path="url(#_clipPath_4a1wQnsOaR5iYdBYVCqnTgBLeyTE5gxT)"><rect width="256" height="256" style="fill:rgb(19,23,34)" fill-opacity="0"/><path d=" M 142.378 256 L 113.422 256 C 104.003 256 96.288 248.285 96.288 238.867 L 96.288 232.053 C 96.288 231.452 95.987 229.148 93.583 228.246 C 93.282 228.146 93.082 228.045 92.881 227.945 C 88.773 226.542 84.665 224.839 80.858 222.835 C 80.658 222.735 80.357 222.635 80.157 222.535 C 79.455 222.535 77.351 223.637 76.149 224.539 L 71.941 228.747 C 65.227 235.46 54.406 235.46 47.693 228.747 L 27.053 208.207 C 20.34 201.494 20.34 190.672 27.053 183.959 L 30.86 180.152 C 33.766 177.246 32.063 173.339 32.063 173.238 C 31.862 172.838 31.662 172.437 31.562 171.936 C 30.359 169.231 29.157 166.525 28.255 163.82 C 28.155 163.519 27.955 163.319 27.854 163.018 C 26.452 159.612 21.843 159.512 21.642 159.512 L 16.933 159.512 C 7.515 159.512 -0.2 151.796 -0.2 142.378 L -0.2 113.422 C -0.2 104.003 7.515 96.288 16.933 96.288 L 21.642 96.288 C 21.742 96.288 26.452 96.188 27.854 92.781 C 27.955 92.481 28.055 92.18 28.255 91.98 C 29.257 89.274 30.359 86.569 31.562 83.864 C 31.662 83.463 31.862 83.062 32.063 82.661 C 32.263 82.06 33.666 78.553 30.86 75.748 L 27.053 71.941 C 20.34 65.227 20.34 54.406 27.053 47.693 L 47.593 27.153 C 54.306 20.44 65.127 20.44 71.84 27.153 L 76.049 31.361 C 77.451 32.363 79.555 33.465 80.357 33.265 C 80.457 33.165 80.557 33.165 80.658 33.165 C 84.565 31.261 88.673 29.458 92.881 28.055 C 93.082 27.955 93.382 27.854 93.583 27.754 C 95.987 26.852 96.188 24.448 96.288 23.847 L 96.288 17.133 C 96.288 7.715 104.003 0 113.422 0 L 142.378 0 C 151.796 0 159.512 7.715 159.512 17.133 L 159.512 23.947 C 159.512 24.548 159.812 26.852 162.217 27.754 C 162.517 27.854 162.718 27.955 162.918 28.055 C 167.126 29.558 171.134 31.261 175.042 33.165 C 175.242 33.265 175.443 33.365 175.743 33.465 C 176.344 33.465 178.348 32.463 179.851 31.461 L 184.059 27.253 C 190.773 20.54 201.594 20.54 208.307 27.253 L 228.847 47.793 C 235.56 54.506 235.56 65.328 228.847 72.041 L 225.04 75.848 C 222.334 78.654 223.637 82.16 223.937 82.862 C 224.038 83.162 224.238 83.563 224.338 83.864 C 225.641 86.569 226.743 89.375 227.745 92.08 C 227.845 92.38 228.045 92.581 228.146 92.881 C 229.548 96.288 234.157 96.388 234.358 96.388 L 239.067 96.388 C 248.485 96.388 256.2 104.103 256.2 113.522 L 256.2 142.478 C 256.2 151.897 248.485 159.612 239.067 159.612 L 234.358 159.612 C 234.258 159.612 229.548 159.712 228.146 163.119 C 228.053 163.404 227.918 163.674 227.745 163.92 C 226.743 166.625 225.641 169.331 224.438 172.036 C 224.338 172.437 224.138 172.838 223.937 173.339 C 223.737 173.94 222.334 177.447 225.14 180.252 L 228.947 184.059 C 232.153 187.266 233.957 191.574 233.957 196.183 C 233.957 200.792 232.153 205.101 228.947 208.307 L 208.407 228.847 C 201.694 235.56 190.873 235.56 184.16 228.847 L 179.951 224.639 C 178.549 223.637 176.445 222.635 175.643 222.735 C 175.543 222.835 175.342 222.835 175.242 222.935 C 171.335 224.839 167.227 226.542 163.119 228.045 C 162.918 228.146 162.618 228.246 162.417 228.346 C 159.812 229.348 159.712 232.153 159.712 232.153 L 159.712 238.967 C 159.512 248.285 151.796 256 142.378 256 L 142.378 256 Z  M 76.95 128 C 76.95 99.825 99.825 76.95 128 76.95 C 156.175 76.95 179.05 99.825 179.05 128 C 179.05 156.175 156.175 179.05 128 179.05 C 99.825 179.05 76.95 156.175 76.95 128 Z " fill-rule="evenodd" fill="rgb(178,181,190)"/></g></svg>