<?xml version="1.0" encoding="UTF-8" standalone="no"?><!-- Generator: Gravit.io --><svg xmlns="http://www.w3.org/2000/svg" xmlns:xlink="http://www.w3.org/1999/xlink" style="isolation:isolate" viewBox="0 0 256 256" width="256pt" height="256pt"><defs><clipPath id="_clipPath_PsxfCAVvj9cXZsLfZ2I4gFjLId8L5egW"><rect width="256" height="256"/></clipPath></defs><g clip-path="url(#_clipPath_PsxfCAVvj9cXZsLfZ2I4gFjLId8L5egW)"><rect width="256" height="256" style="fill:rgb(19,23,34)" fill-opacity="0"/><path d=" M 99.253 166.77 C 99.253 177.917 93.44 196.157 79.68 196.157 C 65.92 196.157 60.107 177.917 60.107 166.77 C 60.107 155.624 65.92 137.384 79.68 137.384 C 93.44 137.384 99.253 155.624 99.253 166.77 L 99.253 166.77 Z  M 256 139.837 C 256 156.85 254.293 174.877 246.667 190.504 C 226.453 231.357 170.88 230.397 131.093 230.397 C 90.667 230.397 31.787 231.837 10.773 190.504 C 2.987 175.037 0 156.85 0 139.837 C 0 117.49 7.413 96.37 22.133 79.25 C 19.36 70.824 18.027 61.97 18.027 53.224 C 18.027 41.757 20.64 35.997 25.813 25.597 C 49.973 25.597 65.44 30.397 83.84 44.797 C 99.307 41.117 115.2 39.464 131.147 39.464 C 145.547 39.464 160.053 41.01 174.027 44.37 C 192.16 30.13 207.627 25.597 231.52 25.597 C 236.747 35.997 239.307 41.757 239.307 53.224 C 239.307 61.97 237.92 70.664 235.2 78.93 C 249.867 96.21 256 117.49 256 139.837 L 256 139.837 Z  M 221.707 166.77 C 221.707 143.357 207.467 122.717 182.507 122.717 C 172.427 122.717 162.773 124.53 152.64 125.917 C 144.693 127.144 136.747 127.624 128.587 127.624 C 120.48 127.624 112.533 127.144 104.533 125.917 C 94.56 124.53 84.8 122.717 74.667 122.717 C 49.707 122.717 35.467 143.357 35.467 166.77 C 35.467 213.597 78.347 220.797 115.68 220.797 L 141.387 220.797 C 178.88 220.797 221.707 213.65 221.707 166.77 L 221.707 166.77 Z  M 177.653 137.384 C 163.893 137.384 158.08 155.624 158.08 166.77 C 158.08 177.917 163.893 196.157 177.653 196.157 C 191.413 196.157 197.227 177.917 197.227 166.77 C 197.227 155.624 191.413 137.384 177.653 137.384 Z " fill="rgb(178,181,190)"/></g></svg>