<?xml version="1.0" encoding="UTF-8" standalone="no"?><!-- Generator: Gravit.io --><svg xmlns="http://www.w3.org/2000/svg" xmlns:xlink="http://www.w3.org/1999/xlink" style="isolation:isolate" viewBox="0 0 1280 800" width="1280pt" height="800pt"><defs><clipPath id="_clipPath_rxg4wk6JplN2oCYjX111uMMKriKschEl"><rect width="1280" height="800"/></clipPath></defs><g clip-path="url(#_clipPath_rxg4wk6JplN2oCYjX111uMMKriKschEl)"><rect width="1280" height="800" style="fill:rgb(19,23,34)"/><g><g opacity="0.25"><path d=" M 557.279 400 C 557.279 354.345 594.345 317.279 640 317.279 C 685.655 317.279 722.721 354.345 722.721 400 C 722.721 445.655 685.655 482.721 640 482.721 C 594.345 482.721 557.279 445.655 557.279 400 L 557.279 400 L 557.279 400 L 557.279 400 L 557.279 400 L 557.279 400 L 557.279 400 L 557.279 400 Z  M 187.453 -52.547 Q 409.106 -274.201 532.255 292.255 Q -34.201 169.106 187.453 -52.547 L 187.453 -52.547 L 187.453 -52.547 L 187.453 -52.547 L 187.453 -52.547 L 187.453 -52.547 L 187.453 -52.547 L 187.453 -52.547 Z  M 1092.547 852.547 Q 1314.201 630.894 747.745 507.745 Q 870.894 1074.201 1092.547 852.547 L 1092.547 852.547 L 1092.547 852.547 L 1092.547 852.547 L 1092.547 852.547 L 1092.547 852.547 L 1092.547 852.547 Z  M 187.453 852.547 Q 409.106 1074.201 532.255 507.745 Q -34.201 630.894 187.453 852.547 L 187.453 852.547 L 187.453 852.547 L 187.453 852.547 L 187.453 852.547 L 187.453 852.547 Z  M 1092.547 -52.547 Q 1314.201 169.106 747.745 292.255 Q 870.894 -274.201 1092.547 -52.547 L 1092.547 -52.547 L 1092.547 -52.547 L 1092.547 -52.547 L 1092.547 -52.547 Z  M 1280 400 Q 1280 713.465 792.376 400 Q 1280 86.535 1280 400 L 1280 400 L 1280 400 L 1280 400 Z  M 0 400 Q 0 713.465 487.624 400 Q 0 86.535 0 400 L 0 400 L 0 400 Z  M 640 1040 Q 953.465 1040 640 552.376 Q 326.535 1040 640 1040 L 640 1040 Z  M 640 -240 Q 953.465 -240 640 247.624 Q 326.535 -240 640 -240 Z " fill-rule="evenodd" fill="rgb(42,46,57)"/></g></g><g><path d=" M 906.548 121.5 L 1280 121.5 L 1306 121.5 L 1306 69.5 L 1280 69.5 L 906.548 69.5 C 911.568 76.924 914.5 85.872 914.5 95.5 L 914.5 95.5 C 914.5 105.128 911.568 114.076 906.548 121.5 Z  M 373.452 121.5 L 0 121.5 L -26 121.5 L -26 69.5 L 0 69.5 L 373.452 69.5 C 368.432 76.924 365.5 85.872 365.5 95.5 L 365.5 95.5 C 365.5 105.128 368.432 114.076 373.452 121.5 Z " fill-rule="evenodd" fill="rgb(40,95,245)"/><path d=" M 661.9 97.062 L 661.9 97.062 L 661.9 97.062 Q 661.9 105.974 657.394 111.077 L 657.394 111.077 L 657.394 111.077 Q 652.887 116.181 644.863 116.181 L 644.863 116.181 L 644.863 116.181 Q 636.662 116.181 632.206 111.166 L 632.206 111.166 L 632.206 111.166 Q 627.75 106.151 627.75 97.011 L 627.75 97.011 L 627.75 97.011 Q 627.75 87.946 632.219 82.957 L 632.219 82.957 L 632.219 82.957 Q 636.688 77.968 644.914 77.968 L 644.914 77.968 L 644.914 77.968 Q 652.912 77.968 657.406 83.046 L 657.406 83.046 L 657.406 83.046 Q 661.9 88.124 661.9 97.062 Z  M 632.32 97.062 L 632.32 97.062 L 632.32 97.062 Q 632.32 104.603 635.532 108.5 L 635.532 108.5 L 635.532 108.5 Q 638.744 112.397 644.863 112.397 L 644.863 112.397 L 644.863 112.397 Q 651.033 112.397 654.182 108.513 L 654.182 108.513 L 654.182 108.513 Q 657.33 104.628 657.33 97.062 L 657.33 97.062 L 657.33 97.062 Q 657.33 89.571 654.194 85.699 L 654.194 85.699 L 654.194 85.699 Q 651.059 81.827 644.914 81.827 L 644.914 81.827 L 644.914 81.827 Q 638.744 81.827 635.532 85.725 L 635.532 85.725 L 635.532 85.725 Q 632.32 89.622 632.32 97.062 Z  M 693.715 89.368 L 693.715 89.368 L 693.715 89.368 Q 693.715 95.005 689.868 98.039 L 689.868 98.039 L 689.868 98.039 Q 686.021 101.073 678.861 101.073 L 678.861 101.073 L 674.494 101.073 L 674.494 115.673 L 670.178 115.673 L 670.178 78.552 L 679.801 78.552 L 679.801 78.552 Q 693.715 78.552 693.715 89.368 Z  M 674.494 82.284 L 674.494 97.366 L 678.379 97.366 L 678.379 97.366 Q 684.117 97.366 686.682 95.513 L 686.682 95.513 L 686.682 95.513 Q 689.246 93.659 689.246 89.571 L 689.246 89.571 L 689.246 89.571 Q 689.246 85.89 686.834 84.087 L 686.834 84.087 L 686.834 84.087 Q 684.422 82.284 679.318 82.284 L 679.318 82.284 L 674.494 82.284 Z  M 712.91 82.386 L 712.91 115.673 L 708.594 115.673 L 708.594 82.386 L 696.838 82.386 L 696.838 78.552 L 724.666 78.552 L 724.666 82.386 L 712.91 82.386 Z  M 734.568 115.673 L 730.252 115.673 L 730.252 78.552 L 734.568 78.552 L 734.568 115.673 Z  M 776.971 97.062 L 776.971 97.062 L 776.971 97.062 Q 776.971 105.974 772.464 111.077 L 772.464 111.077 L 772.464 111.077 Q 767.957 116.181 759.934 116.181 L 759.934 116.181 L 759.934 116.181 Q 751.732 116.181 747.276 111.166 L 747.276 111.166 L 747.276 111.166 Q 742.82 106.151 742.82 97.011 L 742.82 97.011 L 742.82 97.011 Q 742.82 87.946 747.289 82.957 L 747.289 82.957 L 747.289 82.957 Q 751.758 77.968 759.984 77.968 L 759.984 77.968 L 759.984 77.968 Q 767.982 77.968 772.477 83.046 L 772.477 83.046 L 772.477 83.046 Q 776.971 88.124 776.971 97.062 Z  M 747.391 97.062 L 747.391 97.062 L 747.391 97.062 Q 747.391 104.603 750.603 108.5 L 750.603 108.5 L 750.603 108.5 Q 753.814 112.397 759.934 112.397 L 759.934 112.397 L 759.934 112.397 Q 766.104 112.397 769.252 108.513 L 769.252 108.513 L 769.252 108.513 Q 772.4 104.628 772.4 97.062 L 772.4 97.062 L 772.4 97.062 Q 772.4 89.571 769.265 85.699 L 769.265 85.699 L 769.265 85.699 Q 766.129 81.827 759.984 81.827 L 759.984 81.827 L 759.984 81.827 Q 753.814 81.827 750.603 85.725 L 750.603 85.725 L 750.603 85.725 Q 747.391 89.622 747.391 97.062 Z  M 814.244 78.552 L 814.244 115.673 L 809.318 115.673 L 789.031 84.519 L 788.828 84.519 L 788.828 84.519 Q 789.234 90.003 789.234 94.573 L 789.234 94.573 L 789.234 115.673 L 785.248 115.673 L 785.248 78.552 L 790.123 78.552 L 810.359 109.579 L 810.563 109.579 L 810.563 109.579 Q 810.512 108.894 810.334 105.174 L 810.334 105.174 L 810.334 105.174 Q 810.156 101.454 810.207 99.854 L 810.207 99.854 L 810.207 78.552 L 814.244 78.552 Z  M 845.398 105.796 L 845.398 105.796 L 845.398 105.796 Q 845.398 110.696 841.844 113.438 L 841.844 113.438 L 841.844 113.438 Q 838.289 116.181 832.195 116.181 L 832.195 116.181 L 832.195 116.181 Q 825.594 116.181 822.039 114.479 L 822.039 114.479 L 822.039 110.315 L 822.039 110.315 Q 824.324 111.28 827.016 111.839 L 827.016 111.839 L 827.016 111.839 Q 829.707 112.397 832.348 112.397 L 832.348 112.397 L 832.348 112.397 Q 836.664 112.397 838.848 110.76 L 838.848 110.76 L 838.848 110.76 Q 841.031 109.122 841.031 106.202 L 841.031 106.202 L 841.031 106.202 Q 841.031 104.272 840.257 103.041 L 840.257 103.041 L 840.257 103.041 Q 839.482 101.81 837.667 100.769 L 837.667 100.769 L 837.667 100.769 Q 835.852 99.728 832.145 98.407 L 832.145 98.407 L 832.145 98.407 Q 826.965 96.554 824.743 94.015 L 824.743 94.015 L 824.743 94.015 Q 822.521 91.476 822.521 87.388 L 822.521 87.388 L 822.521 87.388 Q 822.521 83.097 825.746 80.558 L 825.746 80.558 L 825.746 80.558 Q 828.971 78.019 834.277 78.019 L 834.277 78.019 L 834.277 78.019 Q 839.813 78.019 844.459 80.05 L 844.459 80.05 L 843.113 83.808 L 843.113 83.808 Q 838.518 81.878 834.176 81.878 L 834.176 81.878 L 834.176 81.878 Q 830.748 81.878 828.818 83.351 L 828.818 83.351 L 828.818 83.351 Q 826.889 84.823 826.889 87.438 L 826.889 87.438 L 826.889 87.438 Q 826.889 89.368 827.6 90.6 L 827.6 90.6 L 827.6 90.6 Q 828.311 91.831 829.999 92.859 L 829.999 92.859 L 829.999 92.859 Q 831.688 93.888 835.166 95.132 L 835.166 95.132 L 835.166 95.132 Q 841.006 97.214 843.202 99.601 L 843.202 99.601 L 843.202 99.601 Q 845.398 101.987 845.398 105.796 Z  M 434.604 115.673 L 434.604 78.552 L 445.09 78.552 L 445.09 78.552 Q 452.479 78.552 455.779 80.761 L 455.779 80.761 L 455.779 80.761 Q 459.08 82.97 459.08 87.743 L 459.08 87.743 L 459.08 87.743 Q 459.08 91.044 457.239 93.189 L 457.239 93.189 L 457.239 93.189 Q 455.398 95.335 451.869 95.97 L 451.869 95.97 L 451.869 96.224 L 451.869 96.224 Q 460.324 97.671 460.324 105.11 L 460.324 105.11 L 460.324 105.11 Q 460.324 110.087 456.96 112.88 L 456.96 112.88 L 456.96 112.88 Q 453.596 115.673 447.553 115.673 L 447.553 115.673 L 434.604 115.673 Z  M 438.92 82.284 L 438.92 94.446 L 446.029 94.446 L 446.029 94.446 Q 450.6 94.446 452.605 93.012 L 452.605 93.012 L 452.605 93.012 Q 454.611 91.577 454.611 88.175 L 454.611 88.175 L 454.611 88.175 Q 454.611 85.052 452.377 83.668 L 452.377 83.668 L 452.377 83.668 Q 450.143 82.284 445.268 82.284 L 445.268 82.284 L 438.92 82.284 Z  M 446.309 98.103 L 438.92 98.103 L 438.92 111.991 L 446.664 111.991 L 446.664 111.991 Q 451.158 111.991 453.431 110.252 L 453.431 110.252 L 453.431 110.252 Q 455.703 108.513 455.703 104.806 L 455.703 104.806 L 455.703 104.806 Q 455.703 101.353 453.38 99.728 L 453.38 99.728 L 453.38 99.728 Q 451.057 98.103 446.309 98.103 L 446.309 98.103 Z  M 472.613 115.673 L 468.297 115.673 L 468.297 78.552 L 472.613 78.552 L 472.613 115.673 Z  M 511.791 78.552 L 511.791 115.673 L 506.865 115.673 L 486.578 84.519 L 486.375 84.519 L 486.375 84.519 Q 486.781 90.003 486.781 94.573 L 486.781 94.573 L 486.781 115.673 L 482.795 115.673 L 482.795 78.552 L 487.67 78.552 L 507.906 109.579 L 508.109 109.579 L 508.109 109.579 Q 508.059 108.894 507.881 105.174 L 507.881 105.174 L 507.881 105.174 Q 507.703 101.454 507.754 99.854 L 507.754 99.854 L 507.754 78.552 L 511.791 78.552 Z  M 549.801 115.673 L 545.332 115.673 L 540.711 103.866 L 525.832 103.866 L 521.262 115.673 L 516.895 115.673 L 531.57 78.399 L 535.201 78.399 L 549.801 115.673 Z  M 527.355 99.981 L 539.365 99.981 L 535.049 88.479 L 535.049 88.479 Q 534.211 86.296 533.322 83.122 L 533.322 83.122 L 533.322 83.122 Q 532.764 85.56 531.723 88.479 L 531.723 88.479 L 527.355 99.981 Z  M 566.965 100.235 L 559.221 100.235 L 559.221 115.673 L 554.904 115.673 L 554.904 78.552 L 565.086 78.552 L 565.086 78.552 Q 571.916 78.552 575.179 81.167 L 575.179 81.167 L 575.179 81.167 Q 578.441 83.782 578.441 89.038 L 578.441 89.038 L 578.441 89.038 Q 578.441 96.401 570.977 98.991 L 570.977 98.991 L 581.057 115.673 L 575.953 115.673 L 566.965 100.235 Z  M 559.221 82.335 L 559.221 96.528 L 565.137 96.528 L 565.137 96.528 Q 569.707 96.528 571.84 94.713 L 571.84 94.713 L 571.84 94.713 Q 573.973 92.897 573.973 89.267 L 573.973 89.267 L 573.973 89.267 Q 573.973 85.585 571.802 83.96 L 571.802 83.96 L 571.802 83.96 Q 569.631 82.335 564.832 82.335 L 564.832 82.335 L 559.221 82.335 Z  M 586.668 78.552 L 596.494 97.112 L 606.396 78.552 L 611.068 78.552 L 598.678 101.276 L 598.678 115.673 L 594.311 115.673 L 594.311 101.479 L 581.945 78.552 L 586.668 78.552 Z " fill="rgb(40,95,245)"/></g><line x1="0" y1="400" x2="1280" y2="400" vector-effect="non-scaling-stroke" stroke-width="329" stroke="rgb(42,46,57)" stroke-linejoin="miter" stroke-linecap="square" stroke-miterlimit="3"/><g><path d=" M 676.893 302.369 L 653.219 390.888 L 643.047 390.888 L 625.186 331.613 L 625.186 331.613 Q 623.914 327.677 622.34 321.683 L 622.34 321.683 L 622.34 321.683 Q 620.766 315.689 620.705 314.478 L 620.705 314.478 L 620.705 314.478 Q 619.373 322.47 616.467 331.976 L 616.467 331.976 L 599.15 390.888 L 588.979 390.888 L 565.426 302.369 L 576.324 302.369 L 590.311 357.042 L 590.311 357.042 Q 593.217 368.546 594.549 377.871 L 594.549 377.871 L 594.549 377.871 Q 596.184 366.791 599.393 356.195 L 599.393 356.195 L 615.256 302.369 L 626.154 302.369 L 642.805 356.679 L 642.805 356.679 Q 645.711 366.064 647.709 377.871 L 647.709 377.871 L 647.709 377.871 Q 648.859 369.273 652.068 356.921 L 652.068 356.921 L 665.994 302.369 L 676.893 302.369 Z  M 701.051 390.888 L 690.758 390.888 L 690.758 302.369 L 701.051 302.369 L 701.051 390.888 Z  M 752.576 311.511 L 752.576 390.888 L 742.283 390.888 L 742.283 311.511 L 714.25 311.511 L 714.25 302.369 L 780.609 302.369 L 780.609 311.511 L 752.576 311.511 Z  M 861.137 302.369 L 861.137 390.888 L 850.844 390.888 L 850.844 349.232 L 804.223 349.232 L 804.223 390.888 L 793.93 390.888 L 793.93 302.369 L 804.223 302.369 L 804.223 340.029 L 850.844 340.029 L 850.844 302.369 L 861.137 302.369 Z  M 962.25 346.507 L 962.25 346.507 L 962.25 346.507 Q 962.25 367.759 951.503 379.929 L 951.503 379.929 L 951.503 379.929 Q 940.756 392.099 921.623 392.099 L 921.623 392.099 L 921.623 392.099 Q 902.066 392.099 891.44 380.141 L 891.44 380.141 L 891.44 380.141 Q 880.814 368.183 880.814 346.386 L 880.814 346.386 L 880.814 346.386 Q 880.814 324.771 891.471 312.874 L 891.471 312.874 L 891.471 312.874 Q 902.127 300.976 921.744 300.976 L 921.744 300.976 L 921.744 300.976 Q 940.816 300.976 951.533 313.085 L 951.533 313.085 L 951.533 313.085 Q 962.25 325.195 962.25 346.507 Z  M 891.713 346.507 L 891.713 346.507 L 891.713 346.507 Q 891.713 364.49 899.372 373.784 L 899.372 373.784 L 899.372 373.784 Q 907.031 383.078 921.623 383.078 L 921.623 383.078 L 921.623 383.078 Q 936.336 383.078 943.844 373.814 L 943.844 373.814 L 943.844 373.814 Q 951.352 364.55 951.352 346.507 L 951.352 346.507 L 951.352 346.507 Q 951.352 328.646 943.874 319.413 L 943.874 319.413 L 943.874 319.413 Q 936.396 310.179 921.744 310.179 L 921.744 310.179 L 921.744 310.179 Q 907.031 310.179 899.372 319.473 L 899.372 319.473 L 899.372 319.473 Q 891.713 328.767 891.713 346.507 Z  M 1038.539 302.369 L 1048.832 302.369 L 1048.832 359.646 L 1048.832 359.646 Q 1048.832 374.783 1039.689 383.441 L 1039.689 383.441 L 1039.689 383.441 Q 1030.547 392.099 1014.563 392.099 L 1014.563 392.099 L 1014.563 392.099 Q 998.578 392.099 989.829 383.38 L 989.829 383.38 L 989.829 383.38 Q 981.08 374.662 981.08 359.404 L 981.08 359.404 L 981.08 302.369 L 991.373 302.369 L 991.373 360.13 L 991.373 360.13 Q 991.373 371.21 997.428 377.144 L 997.428 377.144 L 997.428 377.144 Q 1003.482 383.078 1015.229 383.078 L 1015.229 383.078 L 1015.229 383.078 Q 1026.43 383.078 1032.484 377.114 L 1032.484 377.114 L 1032.484 377.114 Q 1038.539 371.15 1038.539 360.009 L 1038.539 360.009 L 1038.539 302.369 Z  M 1099.51 311.511 L 1099.51 390.888 L 1089.217 390.888 L 1089.217 311.511 L 1061.184 311.511 L 1061.184 302.369 L 1127.543 302.369 L 1127.543 311.511 L 1099.51 311.511 Z  M 187.916 311.511 L 187.916 390.888 L 177.623 390.888 L 177.623 311.511 L 149.59 311.511 L 149.59 302.369 L 215.949 302.369 L 215.949 311.511 L 187.916 311.511 Z  M 258.029 354.076 L 239.563 354.076 L 239.563 390.888 L 229.27 390.888 L 229.27 302.369 L 253.549 302.369 L 253.549 302.369 Q 269.836 302.369 277.616 308.605 L 277.616 308.605 L 277.616 308.605 Q 285.396 314.841 285.396 327.375 L 285.396 327.375 L 285.396 327.375 Q 285.396 344.933 267.596 351.109 L 267.596 351.109 L 291.633 390.888 L 279.463 390.888 L 258.029 354.076 Z  M 239.563 311.39 L 239.563 345.236 L 253.67 345.236 L 253.67 345.236 Q 264.568 345.236 269.654 340.907 L 269.654 340.907 L 269.654 340.907 Q 274.74 336.578 274.74 327.919 L 274.74 327.919 L 274.74 327.919 Q 274.74 319.14 269.563 315.265 L 269.563 315.265 L 269.563 315.265 Q 264.387 311.39 252.943 311.39 L 252.943 311.39 L 239.563 311.39 Z  M 372.221 390.888 L 361.564 390.888 L 350.545 362.734 L 315.064 362.734 L 304.166 390.888 L 293.752 390.888 L 328.748 302.005 L 337.406 302.005 L 372.221 390.888 Z  M 318.697 353.47 L 347.336 353.47 L 337.043 326.042 L 337.043 326.042 Q 335.045 320.835 332.926 313.267 L 332.926 313.267 L 332.926 313.267 Q 331.594 319.08 329.111 326.042 L 329.111 326.042 L 318.697 353.47 Z  M 455.049 345.781 L 455.049 345.781 L 455.049 345.781 Q 455.049 367.699 443.151 379.293 L 443.151 379.293 L 443.151 379.293 Q 431.254 390.888 408.912 390.888 L 408.912 390.888 L 384.391 390.888 L 384.391 302.369 L 411.516 302.369 L 411.516 302.369 Q 432.162 302.369 443.605 313.812 L 443.605 313.812 L 443.605 313.812 Q 455.049 325.255 455.049 345.781 Z  M 444.15 346.144 L 444.15 346.144 L 444.15 346.144 Q 444.15 328.828 435.462 320.048 L 435.462 320.048 L 435.462 320.048 Q 426.773 311.269 409.639 311.269 L 409.639 311.269 L 394.684 311.269 L 394.684 381.988 L 407.217 381.988 L 407.217 381.988 Q 425.623 381.988 434.887 372.936 L 434.887 372.936 L 434.887 372.936 Q 444.15 363.884 444.15 346.144 Z  M 524.133 381.685 L 524.133 390.888 L 474.787 390.888 L 474.787 302.369 L 524.133 302.369 L 524.133 311.511 L 485.08 311.511 L 485.08 340.029 L 521.771 340.029 L 521.771 349.111 L 485.08 349.111 L 485.08 381.685 L 524.133 381.685 Z " fill="rgb(8,153,129)"/><path d=" M 344.814 505.321 L 327.619 505.321 L 306.307 435.874 L 305.762 435.874 L 305.762 435.874 Q 306.912 457.065 306.912 464.149 L 306.912 464.149 L 306.912 505.321 L 290.141 505.321 L 290.141 416.801 L 315.691 416.801 L 336.641 484.493 L 337.004 484.493 L 359.225 416.801 L 384.775 416.801 L 384.775 505.321 L 367.277 505.321 L 367.277 463.422 L 367.277 463.422 Q 367.277 460.456 367.368 456.581 L 367.368 456.581 L 367.368 456.581 Q 367.459 452.706 368.186 435.995 L 368.186 435.995 L 367.641 435.995 L 344.814 505.321 Z  M 551.402 460.94 L 551.402 460.94 L 551.402 460.94 Q 551.402 482.918 540.504 494.725 L 540.504 494.725 L 540.504 494.725 Q 529.605 506.532 509.262 506.532 L 509.262 506.532 L 509.262 506.532 Q 488.918 506.532 478.02 494.725 L 478.02 494.725 L 478.02 494.725 Q 467.121 482.918 467.121 460.819 L 467.121 460.819 L 467.121 460.819 Q 467.121 438.719 478.05 427.064 L 478.05 427.064 L 478.05 427.064 Q 488.979 415.409 509.383 415.409 L 509.383 415.409 L 509.383 415.409 Q 529.787 415.409 540.595 427.155 L 540.595 427.155 L 540.595 427.155 Q 551.402 438.901 551.402 460.94 Z  M 486.799 460.94 L 486.799 460.94 L 486.799 460.94 Q 486.799 475.774 492.43 483.282 L 492.43 483.282 L 492.43 483.282 Q 498.061 490.79 509.262 490.79 L 509.262 490.79 L 509.262 490.79 Q 531.725 490.79 531.725 460.94 L 531.725 460.94 L 531.725 460.94 Q 531.725 431.03 509.383 431.03 L 509.383 431.03 L 509.383 431.03 Q 498.182 431.03 492.49 438.568 L 492.49 438.568 L 492.49 438.568 Q 486.799 446.106 486.799 460.94 Z  M 712.277 416.801 L 712.277 505.321 L 688.422 505.321 L 649.914 438.356 L 649.369 438.356 L 649.369 438.356 Q 650.52 456.096 650.52 463.665 L 650.52 463.665 L 650.52 505.321 L 633.748 505.321 L 633.748 416.801 L 657.422 416.801 L 695.869 483.1 L 696.293 483.1 L 696.293 483.1 Q 695.385 465.844 695.385 458.7 L 695.385 458.7 L 695.385 416.801 L 712.277 416.801 Z  M 849.539 489.821 L 849.539 505.321 L 798.559 505.321 L 798.559 416.801 L 849.539 416.801 L 849.539 432.18 L 817.328 432.18 L 817.328 451.616 L 847.299 451.616 L 847.299 466.995 L 817.328 466.995 L 817.328 489.821 L 849.539 489.821 Z  M 941.209 416.801 L 959.555 453.25 L 978.021 416.801 L 998.244 416.801 L 968.879 470.87 L 968.879 505.321 L 950.23 505.321 L 950.23 471.475 L 920.865 416.801 L 941.209 416.801 Z " fill="rgb(242,54,69)"/><path d=" M 242.734 447.085 L 183.279 506.532 L 170.612 493.865 L 230.058 434.409 L 211.058 415.409 L 261.735 415.409 L 261.735 466.086 L 242.734 447.085 Z " fill="rgb(8,153,129)"/><path d=" M 1049.942 487.531 L 1109.388 428.076 L 1096.721 415.409 L 1037.266 474.855 L 1018.265 455.855 L 1018.265 506.532 L 1068.942 506.532 L 1049.942 487.531 Z " fill="rgb(242,54,69)"/></g><g><path d=" M 1118.048 730.5 L 1280 730.5 L 1306 730.5 L 1306 678.5 L 1280 678.5 L 1118.048 678.5 C 1123.068 685.924 1126 694.872 1126 704.5 L 1126 704.5 C 1126 714.128 1123.068 723.076 1118.048 730.5 Z  M 161.952 730.5 L 0 730.5 L -26 730.5 L -26 678.5 L 0 678.5 L 161.952 678.5 C 156.932 685.924 154 694.872 154 704.5 L 154 704.5 C 154 714.128 156.932 723.076 161.952 730.5 Z " fill-rule="evenodd" fill="rgb(178,181,190)"/><path d=" M 695.477 720.408 L 695.477 720.408 L 695.477 720.408 Q 690.828 720.408 688.279 717.547 L 688.279 717.547 L 688.279 717.547 Q 685.73 714.686 685.73 709.451 L 685.73 709.451 L 685.73 709.451 Q 685.73 704.08 688.318 701.15 L 688.318 701.15 L 688.318 701.15 Q 690.906 698.221 695.691 698.221 L 695.691 698.221 L 695.691 698.221 Q 697.234 698.221 698.777 698.553 L 698.777 698.553 L 698.777 698.553 Q 700.32 698.885 701.199 699.334 L 701.199 699.334 L 700.203 702.088 L 700.203 702.088 Q 699.129 701.658 697.859 701.375 L 697.859 701.375 L 697.859 701.375 Q 696.59 701.092 695.613 701.092 L 695.613 701.092 L 695.613 701.092 Q 689.09 701.092 689.09 709.412 L 689.09 709.412 L 689.09 709.412 Q 689.09 713.357 690.682 715.467 L 690.682 715.467 L 690.682 715.467 Q 692.273 717.576 695.398 717.576 L 695.398 717.576 L 695.398 717.576 Q 698.074 717.576 700.887 716.424 L 700.887 716.424 L 700.887 719.295 L 700.887 719.295 Q 698.738 720.408 695.477 720.408 Z  M 734.441 709.295 L 734.441 709.295 L 734.441 709.295 Q 734.441 714.529 731.805 717.469 L 731.805 717.469 L 731.805 717.469 Q 729.168 720.408 724.52 720.408 L 724.52 720.408 L 724.52 720.408 Q 721.648 720.408 719.422 719.061 L 719.422 719.061 L 719.422 719.061 Q 717.195 717.713 715.984 715.193 L 715.984 715.193 L 715.984 715.193 Q 714.773 712.674 714.773 709.295 L 714.773 709.295 L 714.773 709.295 Q 714.773 704.061 717.391 701.141 L 717.391 701.141 L 717.391 701.141 Q 720.008 698.221 724.656 698.221 L 724.656 698.221 L 724.656 698.221 Q 729.148 698.221 731.795 701.209 L 731.795 701.209 L 731.795 701.209 Q 734.441 704.197 734.441 709.295 Z  M 718.133 709.295 L 718.133 709.295 L 718.133 709.295 Q 718.133 713.396 719.773 715.545 L 719.773 715.545 L 719.773 715.545 Q 721.414 717.693 724.598 717.693 L 724.598 717.693 L 724.598 717.693 Q 727.781 717.693 729.432 715.555 L 729.432 715.555 L 729.432 715.555 Q 731.082 713.416 731.082 709.295 L 731.082 709.295 L 731.082 709.295 Q 731.082 705.213 729.432 703.094 L 729.432 703.094 L 729.432 703.094 Q 727.781 700.975 724.559 700.975 L 724.559 700.975 L 724.559 700.975 Q 721.375 700.975 719.754 703.064 L 719.754 703.064 L 719.754 703.064 Q 718.133 705.154 718.133 709.295 Z  M 780.652 720.018 L 777.41 720.018 L 777.41 706.092 L 777.41 706.092 Q 777.41 703.533 776.316 702.254 L 776.316 702.254 L 776.316 702.254 Q 775.223 700.975 772.918 700.975 L 772.918 700.975 L 772.918 700.975 Q 769.891 700.975 768.445 702.713 L 768.445 702.713 L 768.445 702.713 Q 767 704.451 767 708.064 L 767 708.064 L 767 720.018 L 763.758 720.018 L 763.758 706.092 L 763.758 706.092 Q 763.758 703.533 762.664 702.254 L 762.664 702.254 L 762.664 702.254 Q 761.57 700.975 759.246 700.975 L 759.246 700.975 L 759.246 700.975 Q 756.199 700.975 754.783 702.801 L 754.783 702.801 L 754.783 702.801 Q 753.367 704.627 753.367 708.787 L 753.367 708.787 L 753.367 720.018 L 750.125 720.018 L 750.125 698.611 L 752.762 698.611 L 753.289 701.541 L 753.445 701.541 L 753.445 701.541 Q 754.363 699.979 756.033 699.1 L 756.033 699.1 L 756.033 699.1 Q 757.703 698.221 759.773 698.221 L 759.773 698.221 L 759.773 698.221 Q 764.793 698.221 766.336 701.854 L 766.336 701.854 L 766.492 701.854 L 766.492 701.854 Q 767.449 700.174 769.266 699.197 L 769.266 699.197 L 769.266 699.197 Q 771.082 698.221 773.406 698.221 L 773.406 698.221 L 773.406 698.221 Q 777.039 698.221 778.846 700.086 L 778.846 700.086 L 778.846 700.086 Q 780.652 701.951 780.652 706.053 L 780.652 706.053 L 780.652 720.018 Z  M 804.93 691.463 L 808.172 691.463 L 797.527 720.018 L 794.285 720.018 L 804.93 691.463 Z  M 831.668 698.611 L 831.668 701.131 L 826.219 701.131 L 826.219 720.018 L 822.977 720.018 L 822.977 701.131 L 819.148 701.131 L 819.148 699.666 L 822.977 698.494 L 822.977 697.303 L 822.977 697.303 Q 822.977 689.412 829.871 689.412 L 829.871 689.412 L 829.871 689.412 Q 831.57 689.412 833.855 690.096 L 833.855 690.096 L 833.016 692.693 L 833.016 692.693 Q 831.141 692.088 829.813 692.088 L 829.813 692.088 L 829.813 692.088 Q 827.977 692.088 827.098 693.309 L 827.098 693.309 L 827.098 693.309 Q 826.219 694.529 826.219 697.225 L 826.219 697.225 L 826.219 698.611 L 831.668 698.611 Z  M 848.816 698.611 L 848.816 720.018 L 845.574 720.018 L 845.574 698.611 L 848.816 698.611 Z  M 845.301 692.811 L 845.301 692.811 L 845.301 692.811 Q 845.301 691.697 845.848 691.18 L 845.848 691.18 L 845.848 691.18 Q 846.395 690.662 847.215 690.662 L 847.215 690.662 L 847.215 690.662 Q 847.996 690.662 848.563 691.189 L 848.563 691.189 L 848.563 691.189 Q 849.129 691.717 849.129 692.811 L 849.129 692.811 L 849.129 692.811 Q 849.129 693.904 848.563 694.441 L 848.563 694.441 L 848.563 694.441 Q 847.996 694.979 847.215 694.979 L 847.215 694.979 L 847.215 694.979 Q 846.395 694.979 845.848 694.441 L 845.848 694.441 L 845.848 694.441 Q 845.301 693.904 845.301 692.811 Z  M 883.582 720.018 L 880.34 720.018 L 880.34 706.17 L 880.34 706.17 Q 880.34 703.553 879.148 702.264 L 879.148 702.264 L 879.148 702.264 Q 877.957 700.975 875.418 700.975 L 875.418 700.975 L 875.418 700.975 Q 872.059 700.975 870.496 702.791 L 870.496 702.791 L 870.496 702.791 Q 868.934 704.607 868.934 708.787 L 868.934 708.787 L 868.934 720.018 L 865.691 720.018 L 865.691 698.611 L 868.328 698.611 L 868.855 701.541 L 869.012 701.541 L 869.012 701.541 Q 870.008 699.959 871.805 699.09 L 871.805 699.09 L 871.805 699.09 Q 873.602 698.221 875.809 698.221 L 875.809 698.221 L 875.809 698.221 Q 879.676 698.221 881.629 700.086 L 881.629 700.086 L 881.629 700.086 Q 883.582 701.951 883.582 706.053 L 883.582 706.053 L 883.582 720.018 Z  M 915.809 720.018 L 913.406 720.018 L 912.762 716.971 L 912.605 716.971 L 912.605 716.971 Q 911.004 718.982 909.412 719.695 L 909.412 719.695 L 909.412 719.695 Q 907.82 720.408 905.438 720.408 L 905.438 720.408 L 905.438 720.408 Q 902.254 720.408 900.447 718.768 L 900.447 718.768 L 900.447 718.768 Q 898.641 717.127 898.641 714.1 L 898.641 714.1 L 898.641 714.1 Q 898.641 707.615 909.012 707.303 L 909.012 707.303 L 912.645 707.186 L 912.645 705.857 L 912.645 705.857 Q 912.645 703.338 911.561 702.137 L 911.561 702.137 L 911.561 702.137 Q 910.477 700.936 908.094 700.936 L 908.094 700.936 L 908.094 700.936 Q 905.418 700.936 902.039 702.576 L 902.039 702.576 L 901.043 700.096 L 901.043 700.096 Q 902.625 699.236 904.51 698.748 L 904.51 698.748 L 904.51 698.748 Q 906.395 698.26 908.289 698.26 L 908.289 698.26 L 908.289 698.26 Q 912.117 698.26 913.963 699.959 L 913.963 699.959 L 913.963 699.959 Q 915.809 701.658 915.809 705.408 L 915.809 705.408 L 915.809 720.018 Z  M 906.082 717.732 L 906.082 717.732 L 906.082 717.732 Q 909.109 717.732 910.838 716.072 L 910.838 716.072 L 910.838 716.072 Q 912.566 714.412 912.566 711.424 L 912.566 711.424 L 912.566 709.49 L 909.324 709.627 L 909.324 709.627 Q 905.457 709.764 903.748 710.828 L 903.748 710.828 L 903.748 710.828 Q 902.039 711.893 902.039 714.139 L 902.039 714.139 L 902.039 714.139 Q 902.039 715.896 903.104 716.814 L 903.104 716.814 L 903.104 716.814 Q 904.168 717.732 906.082 717.732 Z  M 950.379 720.018 L 947.137 720.018 L 947.137 706.17 L 947.137 706.17 Q 947.137 703.553 945.945 702.264 L 945.945 702.264 L 945.945 702.264 Q 944.754 700.975 942.215 700.975 L 942.215 700.975 L 942.215 700.975 Q 938.855 700.975 937.293 702.791 L 937.293 702.791 L 937.293 702.791 Q 935.73 704.607 935.73 708.787 L 935.73 708.787 L 935.73 720.018 L 932.488 720.018 L 932.488 698.611 L 935.125 698.611 L 935.652 701.541 L 935.809 701.541 L 935.809 701.541 Q 936.805 699.959 938.602 699.09 L 938.602 699.09 L 938.602 699.09 Q 940.398 698.221 942.605 698.221 L 942.605 698.221 L 942.605 698.221 Q 946.473 698.221 948.426 700.086 L 948.426 700.086 L 948.426 700.086 Q 950.379 701.951 950.379 706.053 L 950.379 706.053 L 950.379 720.018 Z  M 975.594 720.408 L 975.594 720.408 L 975.594 720.408 Q 970.945 720.408 968.396 717.547 L 968.396 717.547 L 968.396 717.547 Q 965.848 714.686 965.848 709.451 L 965.848 709.451 L 965.848 709.451 Q 965.848 704.08 968.436 701.15 L 968.436 701.15 L 968.436 701.15 Q 971.023 698.221 975.809 698.221 L 975.809 698.221 L 975.809 698.221 Q 977.352 698.221 978.895 698.553 L 978.895 698.553 L 978.895 698.553 Q 980.438 698.885 981.316 699.334 L 981.316 699.334 L 980.32 702.088 L 980.32 702.088 Q 979.246 701.658 977.977 701.375 L 977.977 701.375 L 977.977 701.375 Q 976.707 701.092 975.73 701.092 L 975.73 701.092 L 975.73 701.092 Q 969.207 701.092 969.207 709.412 L 969.207 709.412 L 969.207 709.412 Q 969.207 713.357 970.799 715.467 L 970.799 715.467 L 970.799 715.467 Q 972.391 717.576 975.516 717.576 L 975.516 717.576 L 975.516 717.576 Q 978.191 717.576 981.004 716.424 L 981.004 716.424 L 981.004 719.295 L 981.004 719.295 Q 978.855 720.408 975.594 720.408 Z  M 1005.125 720.408 L 1005.125 720.408 L 1005.125 720.408 Q 1000.379 720.408 997.635 717.518 L 997.635 717.518 L 997.635 717.518 Q 994.891 714.627 994.891 709.49 L 994.891 709.49 L 994.891 709.49 Q 994.891 704.314 997.439 701.268 L 997.439 701.268 L 997.439 701.268 Q 999.988 698.221 1004.285 698.221 L 1004.285 698.221 L 1004.285 698.221 Q 1008.309 698.221 1010.652 700.867 L 1010.652 700.867 L 1010.652 700.867 Q 1012.996 703.514 1012.996 707.85 L 1012.996 707.85 L 1012.996 709.9 L 998.25 709.9 L 998.25 709.9 Q 998.348 713.67 1000.154 715.623 L 1000.154 715.623 L 1000.154 715.623 Q 1001.961 717.576 1005.242 717.576 L 1005.242 717.576 L 1005.242 717.576 Q 1008.699 717.576 1012.078 716.131 L 1012.078 716.131 L 1012.078 719.021 L 1012.078 719.021 Q 1010.359 719.764 1008.826 720.086 L 1008.826 720.086 L 1008.826 720.086 Q 1007.293 720.408 1005.125 720.408 Z  M 1004.246 700.936 L 1004.246 700.936 L 1004.246 700.936 Q 1001.668 700.936 1000.135 702.615 L 1000.135 702.615 L 1000.135 702.615 Q 998.602 704.295 998.328 707.264 L 998.328 707.264 L 1009.52 707.264 L 1009.52 707.264 Q 1009.52 704.197 1008.152 702.566 L 1008.152 702.566 L 1008.152 702.566 Q 1006.785 700.936 1004.246 700.936 Z  M 295.965 720.018 L 292.723 720.018 L 292.723 706.092 L 292.723 706.092 Q 292.723 703.533 291.629 702.254 L 291.629 702.254 L 291.629 702.254 Q 290.535 700.975 288.23 700.975 L 288.23 700.975 L 288.23 700.975 Q 285.203 700.975 283.758 702.713 L 283.758 702.713 L 283.758 702.713 Q 282.313 704.451 282.313 708.064 L 282.313 708.064 L 282.313 720.018 L 279.07 720.018 L 279.07 706.092 L 279.07 706.092 Q 279.07 703.533 277.977 702.254 L 277.977 702.254 L 277.977 702.254 Q 276.883 700.975 274.559 700.975 L 274.559 700.975 L 274.559 700.975 Q 271.512 700.975 270.096 702.801 L 270.096 702.801 L 270.096 702.801 Q 268.68 704.627 268.68 708.787 L 268.68 708.787 L 268.68 720.018 L 265.438 720.018 L 265.438 698.611 L 268.074 698.611 L 268.602 701.541 L 268.758 701.541 L 268.758 701.541 Q 269.676 699.979 271.346 699.1 L 271.346 699.1 L 271.346 699.1 Q 273.016 698.221 275.086 698.221 L 275.086 698.221 L 275.086 698.221 Q 280.105 698.221 281.648 701.854 L 281.648 701.854 L 281.805 701.854 L 281.805 701.854 Q 282.762 700.174 284.578 699.197 L 284.578 699.197 L 284.578 699.197 Q 286.395 698.221 288.719 698.221 L 288.719 698.221 L 288.719 698.221 Q 292.352 698.221 294.158 700.086 L 294.158 700.086 L 294.158 700.086 Q 295.965 701.951 295.965 706.053 L 295.965 706.053 L 295.965 720.018 Z  M 315.887 698.611 L 315.887 720.018 L 312.645 720.018 L 312.645 698.611 L 315.887 698.611 Z  M 312.371 692.811 L 312.371 692.811 L 312.371 692.811 Q 312.371 691.697 312.918 691.18 L 312.918 691.18 L 312.918 691.18 Q 313.465 690.662 314.285 690.662 L 314.285 690.662 L 314.285 690.662 Q 315.066 690.662 315.633 691.189 L 315.633 691.189 L 315.633 691.189 Q 316.199 691.717 316.199 692.811 L 316.199 692.811 L 316.199 692.811 Q 316.199 693.904 315.633 694.441 L 315.633 694.441 L 315.633 694.441 Q 315.066 694.979 314.285 694.979 L 314.285 694.979 L 314.285 694.979 Q 313.465 694.979 312.918 694.441 L 312.918 694.441 L 312.918 694.441 Q 312.371 693.904 312.371 692.811 Z  M 341.316 720.408 L 341.316 720.408 L 341.316 720.408 Q 336.668 720.408 334.119 717.547 L 334.119 717.547 L 334.119 717.547 Q 331.57 714.686 331.57 709.451 L 331.57 709.451 L 331.57 709.451 Q 331.57 704.08 334.158 701.15 L 334.158 701.15 L 334.158 701.15 Q 336.746 698.221 341.531 698.221 L 341.531 698.221 L 341.531 698.221 Q 343.074 698.221 344.617 698.553 L 344.617 698.553 L 344.617 698.553 Q 346.16 698.885 347.039 699.334 L 347.039 699.334 L 346.043 702.088 L 346.043 702.088 Q 344.969 701.658 343.699 701.375 L 343.699 701.375 L 343.699 701.375 Q 342.43 701.092 341.453 701.092 L 341.453 701.092 L 341.453 701.092 Q 334.93 701.092 334.93 709.412 L 334.93 709.412 L 334.93 709.412 Q 334.93 713.357 336.521 715.467 L 336.521 715.467 L 336.521 715.467 Q 338.113 717.576 341.238 717.576 L 341.238 717.576 L 341.238 717.576 Q 343.914 717.576 346.727 716.424 L 346.727 716.424 L 346.727 719.295 L 346.727 719.295 Q 344.578 720.408 341.316 720.408 Z  M 379.695 720.018 L 376.453 720.018 L 376.453 706.17 L 376.453 706.17 Q 376.453 703.553 375.262 702.264 L 375.262 702.264 L 375.262 702.264 Q 374.07 700.975 371.531 700.975 L 371.531 700.975 L 371.531 700.975 Q 368.152 700.975 366.6 702.811 L 366.6 702.811 L 366.6 702.811 Q 365.047 704.646 365.047 708.826 L 365.047 708.826 L 365.047 720.018 L 361.805 720.018 L 361.805 689.627 L 365.047 689.627 L 365.047 698.826 L 365.047 698.826 Q 365.047 700.486 364.891 701.58 L 364.891 701.58 L 365.086 701.58 L 365.086 701.58 Q 366.043 700.037 367.811 699.148 L 367.811 699.148 L 367.811 699.148 Q 369.578 698.26 371.844 698.26 L 371.844 698.26 L 371.844 698.26 Q 375.77 698.26 377.732 700.125 L 377.732 700.125 L 377.732 700.125 Q 379.695 701.99 379.695 706.053 L 379.695 706.053 L 379.695 720.018 Z  M 411.922 720.018 L 409.52 720.018 L 408.875 716.971 L 408.719 716.971 L 408.719 716.971 Q 407.117 718.982 405.525 719.695 L 405.525 719.695 L 405.525 719.695 Q 403.934 720.408 401.551 720.408 L 401.551 720.408 L 401.551 720.408 Q 398.367 720.408 396.561 718.768 L 396.561 718.768 L 396.561 718.768 Q 394.754 717.127 394.754 714.1 L 394.754 714.1 L 394.754 714.1 Q 394.754 707.615 405.125 707.303 L 405.125 707.303 L 408.758 707.186 L 408.758 705.857 L 408.758 705.857 Q 408.758 703.338 407.674 702.137 L 407.674 702.137 L 407.674 702.137 Q 406.59 700.936 404.207 700.936 L 404.207 700.936 L 404.207 700.936 Q 401.531 700.936 398.152 702.576 L 398.152 702.576 L 397.156 700.096 L 397.156 700.096 Q 398.738 699.236 400.623 698.748 L 400.623 698.748 L 400.623 698.748 Q 402.508 698.26 404.402 698.26 L 404.402 698.26 L 404.402 698.26 Q 408.23 698.26 410.076 699.959 L 410.076 699.959 L 410.076 699.959 Q 411.922 701.658 411.922 705.408 L 411.922 705.408 L 411.922 720.018 Z  M 402.195 717.732 L 402.195 717.732 L 402.195 717.732 Q 405.223 717.732 406.951 716.072 L 406.951 716.072 L 406.951 716.072 Q 408.68 714.412 408.68 711.424 L 408.68 711.424 L 408.68 709.49 L 405.438 709.627 L 405.438 709.627 Q 401.57 709.764 399.861 710.828 L 399.861 710.828 L 399.861 710.828 Q 398.152 711.893 398.152 714.139 L 398.152 714.139 L 398.152 714.139 Q 398.152 715.896 399.217 716.814 L 399.217 716.814 L 399.217 716.814 Q 400.281 717.732 402.195 717.732 Z  M 437.645 720.408 L 437.645 720.408 L 437.645 720.408 Q 432.898 720.408 430.154 717.518 L 430.154 717.518 L 430.154 717.518 Q 427.41 714.627 427.41 709.49 L 427.41 709.49 L 427.41 709.49 Q 427.41 704.314 429.959 701.268 L 429.959 701.268 L 429.959 701.268 Q 432.508 698.221 436.805 698.221 L 436.805 698.221 L 436.805 698.221 Q 440.828 698.221 443.172 700.867 L 443.172 700.867 L 443.172 700.867 Q 445.516 703.514 445.516 707.85 L 445.516 707.85 L 445.516 709.9 L 430.77 709.9 L 430.77 709.9 Q 430.867 713.67 432.674 715.623 L 432.674 715.623 L 432.674 715.623 Q 434.48 717.576 437.762 717.576 L 437.762 717.576 L 437.762 717.576 Q 441.219 717.576 444.598 716.131 L 444.598 716.131 L 444.598 719.021 L 444.598 719.021 Q 442.879 719.764 441.346 720.086 L 441.346 720.086 L 441.346 720.086 Q 439.813 720.408 437.645 720.408 Z  M 436.766 700.936 L 436.766 700.936 L 436.766 700.936 Q 434.188 700.936 432.654 702.615 L 432.654 702.615 L 432.654 702.615 Q 431.121 704.295 430.848 707.264 L 430.848 707.264 L 442.039 707.264 L 442.039 707.264 Q 442.039 704.197 440.672 702.566 L 440.672 702.566 L 440.672 702.566 Q 439.305 700.936 436.766 700.936 Z  M 464.285 689.627 L 464.285 720.018 L 461.043 720.018 L 461.043 689.627 L 464.285 689.627 Z  M 494.969 714.178 L 494.969 714.178 L 494.969 714.178 Q 494.969 717.166 492.742 718.787 L 492.742 718.787 L 492.742 718.787 Q 490.516 720.408 486.492 720.408 L 486.492 720.408 L 486.492 720.408 Q 482.234 720.408 479.852 719.061 L 479.852 719.061 L 479.852 716.053 L 479.852 716.053 Q 481.395 716.834 483.162 717.283 L 483.162 717.283 L 483.162 717.283 Q 484.93 717.732 486.57 717.732 L 486.57 717.732 L 486.57 717.732 Q 489.109 717.732 490.477 716.922 L 490.477 716.922 L 490.477 716.922 Q 491.844 716.111 491.844 714.451 L 491.844 714.451 L 491.844 714.451 Q 491.844 713.201 490.76 712.313 L 490.76 712.313 L 490.76 712.313 Q 489.676 711.424 486.531 710.213 L 486.531 710.213 L 486.531 710.213 Q 483.543 709.1 482.283 708.27 L 482.283 708.27 L 482.283 708.27 Q 481.023 707.439 480.408 706.385 L 480.408 706.385 L 480.408 706.385 Q 479.793 705.33 479.793 703.865 L 479.793 703.865 L 479.793 703.865 Q 479.793 701.248 481.922 699.734 L 481.922 699.734 L 481.922 699.734 Q 484.051 698.221 487.762 698.221 L 487.762 698.221 L 487.762 698.221 Q 491.219 698.221 494.52 699.627 L 494.52 699.627 L 493.367 702.264 L 493.367 702.264 Q 490.145 700.936 487.527 700.936 L 487.527 700.936 L 487.527 700.936 Q 485.223 700.936 484.051 701.658 L 484.051 701.658 L 484.051 701.658 Q 482.879 702.381 482.879 703.65 L 482.879 703.65 L 482.879 703.65 Q 482.879 704.51 483.318 705.115 L 483.318 705.115 L 483.318 705.115 Q 483.758 705.721 484.734 706.268 L 484.734 706.268 L 484.734 706.268 Q 485.711 706.814 488.484 707.85 L 488.484 707.85 L 488.484 707.85 Q 492.293 709.236 493.631 710.643 L 493.631 710.643 L 493.631 710.643 Q 494.969 712.049 494.969 714.178 Z  M 520.203 698.26 L 520.203 698.26 L 520.203 698.26 Q 524.422 698.26 526.756 701.141 L 526.756 701.141 L 526.756 701.141 Q 529.09 704.021 529.09 709.295 L 529.09 709.295 L 529.09 709.295 Q 529.09 714.568 526.736 717.488 L 526.736 717.488 L 526.736 717.488 Q 524.383 720.408 520.203 720.408 L 520.203 720.408 L 520.203 720.408 Q 518.113 720.408 516.385 719.637 L 516.385 719.637 L 516.385 719.637 Q 514.656 718.865 513.484 717.264 L 513.484 717.264 L 513.25 717.264 L 512.566 720.018 L 510.242 720.018 L 510.242 689.627 L 513.484 689.627 L 513.484 697.01 L 513.484 697.01 Q 513.484 699.49 513.328 701.463 L 513.328 701.463 L 513.484 701.463 L 513.484 701.463 Q 515.75 698.26 520.203 698.26 Z  M 519.734 700.975 L 519.734 700.975 L 519.734 700.975 Q 516.414 700.975 514.949 702.879 L 514.949 702.879 L 514.949 702.879 Q 513.484 704.783 513.484 709.295 L 513.484 709.295 L 513.484 709.295 Q 513.484 713.807 514.988 715.75 L 514.988 715.75 L 514.988 715.75 Q 516.492 717.693 519.813 717.693 L 519.813 717.693 L 519.813 717.693 Q 522.801 717.693 524.266 715.516 L 524.266 715.516 L 524.266 715.516 Q 525.73 713.338 525.73 709.256 L 525.73 709.256 L 525.73 709.256 Q 525.73 705.076 524.266 703.025 L 524.266 703.025 L 524.266 703.025 Q 522.801 700.975 519.734 700.975 Z  M 563.23 709.295 L 563.23 709.295 L 563.23 709.295 Q 563.23 714.529 560.594 717.469 L 560.594 717.469 L 560.594 717.469 Q 557.957 720.408 553.309 720.408 L 553.309 720.408 L 553.309 720.408 Q 550.438 720.408 548.211 719.061 L 548.211 719.061 L 548.211 719.061 Q 545.984 717.713 544.773 715.193 L 544.773 715.193 L 544.773 715.193 Q 543.563 712.674 543.563 709.295 L 543.563 709.295 L 543.563 709.295 Q 543.563 704.061 546.18 701.141 L 546.18 701.141 L 546.18 701.141 Q 548.797 698.221 553.445 698.221 L 553.445 698.221 L 553.445 698.221 Q 557.938 698.221 560.584 701.209 L 560.584 701.209 L 560.584 701.209 Q 563.23 704.197 563.23 709.295 Z  M 546.922 709.295 L 546.922 709.295 L 546.922 709.295 Q 546.922 713.396 548.563 715.545 L 548.563 715.545 L 548.563 715.545 Q 550.203 717.693 553.387 717.693 L 553.387 717.693 L 553.387 717.693 Q 556.57 717.693 558.221 715.555 L 558.221 715.555 L 558.221 715.555 Q 559.871 713.416 559.871 709.295 L 559.871 709.295 L 559.871 709.295 Q 559.871 705.213 558.221 703.094 L 558.221 703.094 L 558.221 703.094 Q 556.57 700.975 553.348 700.975 L 553.348 700.975 L 553.348 700.975 Q 550.164 700.975 548.543 703.064 L 548.543 703.064 L 548.543 703.064 Q 546.922 705.154 546.922 709.295 Z  M 597.391 709.295 L 597.391 709.295 L 597.391 709.295 Q 597.391 714.529 594.754 717.469 L 594.754 717.469 L 594.754 717.469 Q 592.117 720.408 587.469 720.408 L 587.469 720.408 L 587.469 720.408 Q 584.598 720.408 582.371 719.061 L 582.371 719.061 L 582.371 719.061 Q 580.145 717.713 578.934 715.193 L 578.934 715.193 L 578.934 715.193 Q 577.723 712.674 577.723 709.295 L 577.723 709.295 L 577.723 709.295 Q 577.723 704.061 580.34 701.141 L 580.34 701.141 L 580.34 701.141 Q 582.957 698.221 587.605 698.221 L 587.605 698.221 L 587.605 698.221 Q 592.098 698.221 594.744 701.209 L 594.744 701.209 L 594.744 701.209 Q 597.391 704.197 597.391 709.295 Z  M 581.082 709.295 L 581.082 709.295 L 581.082 709.295 Q 581.082 713.396 582.723 715.545 L 582.723 715.545 L 582.723 715.545 Q 584.363 717.693 587.547 717.693 L 587.547 717.693 L 587.547 717.693 Q 590.73 717.693 592.381 715.555 L 592.381 715.555 L 592.381 715.555 Q 594.031 713.416 594.031 709.295 L 594.031 709.295 L 594.031 709.295 Q 594.031 705.213 592.381 703.094 L 592.381 703.094 L 592.381 703.094 Q 590.73 700.975 587.508 700.975 L 587.508 700.975 L 587.508 700.975 Q 584.324 700.975 582.703 703.064 L 582.703 703.064 L 582.703 703.064 Q 581.082 705.154 581.082 709.295 Z  M 626.883 714.178 L 626.883 714.178 L 626.883 714.178 Q 626.883 717.166 624.656 718.787 L 624.656 718.787 L 624.656 718.787 Q 622.43 720.408 618.406 720.408 L 618.406 720.408 L 618.406 720.408 Q 614.148 720.408 611.766 719.061 L 611.766 719.061 L 611.766 716.053 L 611.766 716.053 Q 613.309 716.834 615.076 717.283 L 615.076 717.283 L 615.076 717.283 Q 616.844 717.732 618.484 717.732 L 618.484 717.732 L 618.484 717.732 Q 621.023 717.732 622.391 716.922 L 622.391 716.922 L 622.391 716.922 Q 623.758 716.111 623.758 714.451 L 623.758 714.451 L 623.758 714.451 Q 623.758 713.201 622.674 712.313 L 622.674 712.313 L 622.674 712.313 Q 621.59 711.424 618.445 710.213 L 618.445 710.213 L 618.445 710.213 Q 615.457 709.1 614.197 708.27 L 614.197 708.27 L 614.197 708.27 Q 612.938 707.439 612.322 706.385 L 612.322 706.385 L 612.322 706.385 Q 611.707 705.33 611.707 703.865 L 611.707 703.865 L 611.707 703.865 Q 611.707 701.248 613.836 699.734 L 613.836 699.734 L 613.836 699.734 Q 615.965 698.221 619.676 698.221 L 619.676 698.221 L 619.676 698.221 Q 623.133 698.221 626.434 699.627 L 626.434 699.627 L 625.281 702.264 L 625.281 702.264 Q 622.059 700.936 619.441 700.936 L 619.441 700.936 L 619.441 700.936 Q 617.137 700.936 615.965 701.658 L 615.965 701.658 L 615.965 701.658 Q 614.793 702.381 614.793 703.65 L 614.793 703.65 L 614.793 703.65 Q 614.793 704.51 615.232 705.115 L 615.232 705.115 L 615.232 705.115 Q 615.672 705.721 616.648 706.268 L 616.648 706.268 L 616.648 706.268 Q 617.625 706.814 620.398 707.85 L 620.398 707.85 L 620.398 707.85 Q 624.207 709.236 625.545 710.643 L 625.545 710.643 L 625.545 710.643 Q 626.883 712.049 626.883 714.178 Z  M 649.07 717.732 L 649.07 717.732 L 649.07 717.732 Q 649.93 717.732 650.73 717.605 L 650.73 717.605 L 650.73 717.605 Q 651.531 717.479 652 717.342 L 652 717.342 L 652 719.822 L 652 719.822 Q 651.473 720.076 650.447 720.242 L 650.447 720.242 L 650.447 720.242 Q 649.422 720.408 648.602 720.408 L 648.602 720.408 L 648.602 720.408 Q 642.391 720.408 642.391 713.865 L 642.391 713.865 L 642.391 701.131 L 639.324 701.131 L 639.324 699.568 L 642.391 698.221 L 643.758 693.65 L 645.633 693.65 L 645.633 698.611 L 651.844 698.611 L 651.844 701.131 L 645.633 701.131 L 645.633 713.729 L 645.633 713.729 Q 645.633 715.662 646.551 716.697 L 646.551 716.697 L 646.551 716.697 Q 647.469 717.732 649.07 717.732 Z  M 665.809 717.947 L 665.809 717.947 L 665.809 717.947 Q 665.809 716.639 666.404 715.965 L 666.404 715.965 L 666.404 715.965 Q 667 715.291 668.113 715.291 L 668.113 715.291 L 668.113 715.291 Q 669.246 715.291 669.881 715.965 L 669.881 715.965 L 669.881 715.965 Q 670.516 716.639 670.516 717.947 L 670.516 717.947 L 670.516 717.947 Q 670.516 719.217 669.871 719.9 L 669.871 719.9 L 669.871 719.9 Q 669.227 720.584 668.113 720.584 L 668.113 720.584 L 668.113 720.584 Q 667.117 720.584 666.463 719.969 L 666.463 719.969 L 666.463 719.969 Q 665.809 719.354 665.809 717.947 Z " fill="rgb(178,181,190)"/></g></g></svg>