<?xml version="1.0" encoding="UTF-8" standalone="no"?><!-- Generator: Gravit.io --><svg xmlns="http://www.w3.org/2000/svg" xmlns:xlink="http://www.w3.org/1999/xlink" style="isolation:isolate" viewBox="0 0 256 256" width="256pt" height="256pt"><defs><clipPath id="_clipPath_5xkaqAllgh376e6dKuNW4q8ri9PPdGb9"><rect width="256" height="256"/></clipPath></defs><g clip-path="url(#_clipPath_5xkaqAllgh376e6dKuNW4q8ri9PPdGb9)"><rect width="256" height="256" style="fill:rgb(19,23,34)" fill-opacity="0"/><path d=" M 146.286 18.286 C 85.692 18.286 36.571 67.406 36.571 128 L 0 128 L 47.421 175.421 L 48.274 177.128 L 97.524 128 L 60.952 128 C 60.952 80.823 99.109 42.667 146.286 42.667 C 193.463 42.667 231.619 80.823 231.619 128 C 231.619 175.177 193.463 213.333 146.286 213.333 C 122.758 213.333 101.425 203.703 86.065 188.221 L 68.754 205.531 C 89.275 226.165 117.185 237.751 146.286 237.714 C 206.879 237.714 256 188.593 256 128 C 256 67.406 206.879 18.286 146.286 18.286 Z " fill="rgb(178,181,190)"/><path d=" M 134.095 79.238 L 134.095 140.19 L 186.27 171.154 L 195.048 156.404 L 152.381 131.048 L 152.381 79.238 L 134.095 79.238 Z " fill="rgb(178,181,190)"/></g></svg>