<?xml version="1.0" encoding="UTF-8" standalone="no"?><!-- Generator: Gravit.io --><svg xmlns="http://www.w3.org/2000/svg" xmlns:xlink="http://www.w3.org/1999/xlink" style="isolation:isolate" viewBox="0 0 128 128" width="128pt" height="128pt"><defs><clipPath id="_clipPath_xdjOOXHmQt64mHvpxfL64e8lqamXCZwR"><rect width="128" height="128"/></clipPath></defs><g clip-path="url(#_clipPath_xdjOOXHmQt64mHvpxfL64e8lqamXCZwR)"><rect width="128" height="128" style="fill:rgb(30,87,160)"/><g><circle vector-effect="non-scaling-stroke" cx="64" cy="63.99999999999992" r="7.367346938775501" fill="rgb(255,255,255)"/><path d=" M 23.695 23.695 Q 43.436 3.954 54.404 54.404 Q 3.954 43.436 23.695 23.695 Z " fill="rgb(255,255,255)"/><path d=" M 104.305 104.305 Q 124.046 84.564 73.596 73.596 Q 84.564 124.046 104.305 104.305 Z " fill="rgb(255,255,255)"/><path d=" M 23.695 104.305 Q 43.436 124.046 54.404 73.596 Q 3.954 84.564 23.695 104.305 Z " fill="rgb(255,255,255)"/><path d=" M 104.305 23.695 Q 124.046 43.436 73.596 54.404 Q 84.564 3.954 104.305 23.695 Z " fill="rgb(255,255,255)"/><path d=" M 121 64 Q 121 91.918 77.571 64 Q 121 36.082 121 64 Z " fill="rgb(255,255,255)"/><path d=" M 7 64 Q 7 91.918 50.429 64 Q 7 36.082 7 64 Z " fill="rgb(255,255,255)"/><path d=" M 64 121 Q 91.918 121 64 77.571 Q 36.082 121 64 121 Z " fill="rgb(255,255,255)"/><path d=" M 64 7 Q 91.918 7 64 50.429 Q 36.082 7 64 7 Z " fill="rgb(255,255,255)"/></g></g></svg>