<?xml version="1.0" encoding="UTF-8" standalone="no"?><!-- Generator: Gravit.io --><svg xmlns="http://www.w3.org/2000/svg" xmlns:xlink="http://www.w3.org/1999/xlink" style="isolation:isolate" viewBox="0 0 256 256" width="256pt" height="256pt"><defs><clipPath id="_clipPath_nEWD3fNsmldjuP1OnMqRXqrNTLpjtG3Z"><rect width="256" height="256"/></clipPath></defs><g clip-path="url(#_clipPath_nEWD3fNsmldjuP1OnMqRXqrNTLpjtG3Z)"><rect width="256" height="256" style="fill:rgb(19,23,34)" fill-opacity="0"/><path d=" M 128 0 C 57.419 0 0 57.419 0 128 C 0 198.581 57.419 256 128 256 C 198.581 256 256 198.581 256 128 C 256 57.419 198.581 0 128 0 Z  M 128 21.333 C 187.04 21.333 234.667 68.96 234.667 128 C 234.667 187.04 187.04 234.667 128 234.667 C 68.96 234.667 21.333 187.04 21.333 128 C 21.333 68.96 68.96 21.333 128 21.333 Z  M 74.667 74.667 L 74.667 96 L 181.333 96 L 181.333 74.667 L 74.667 74.667 Z  M 74.667 117.333 L 74.667 138.667 L 181.333 138.667 L 181.333 117.333 L 74.667 117.333 Z  M 74.667 160 L 74.667 181.333 L 181.333 181.333 L 181.333 160 L 74.667 160 Z " fill="rgb(178,181,190)"/></g></svg>