<?xml version="1.0" encoding="UTF-8" standalone="no"?><!-- Generator: Gravit.io --><svg xmlns="http://www.w3.org/2000/svg" xmlns:xlink="http://www.w3.org/1999/xlink" style="isolation:isolate" viewBox="0 0 256 256" width="256pt" height="256pt"><defs><clipPath id="_clipPath_GO8dVufTIfF7tYZ4HjtgA70EzGKDaNS6"><rect width="256" height="256"/></clipPath></defs><g clip-path="url(#_clipPath_GO8dVufTIfF7tYZ4HjtgA70EzGKDaNS6)"><rect width="256" height="256" style="fill:rgb(19,23,34)" fill-opacity="0"/><path d=" M 194.934 61.386 L 197.779 57.118 L 199.629 58.398 C 201.122 59.394 202.758 59.821 204.394 59.821 C 207.097 59.821 209.8 58.541 211.436 56.122 L 218.123 46.875 L 218.194 46.733 C 220.826 42.821 219.759 37.486 215.847 34.854 L 204.892 27.457 C 202.972 26.176 200.696 25.749 198.491 26.176 C 196.286 26.603 194.365 27.883 193.085 29.733 L 186.398 38.98 L 186.327 39.122 C 185.047 41.043 184.62 43.319 185.047 45.524 C 185.474 47.8 186.754 49.72 188.675 51.001 L 190.737 52.352 L 188.034 56.407 C 172.67 46.235 154.603 39.833 135.184 38.553 L 135.184 31.298 L 142.084 31.298 C 147.561 31.298 152.042 26.816 152.042 21.339 L 152.042 9.958 C 152.042 4.481 147.561 0 142.084 0 L 113.987 0 C 108.51 0 104.029 4.481 104.029 9.958 L 104.029 21.339 C 104.029 26.816 108.51 31.298 113.987 31.298 L 120.887 31.298 L 120.887 38.553 C 64.195 42.252 19.17 89.554 19.17 147.17 C 19.17 207.204 67.965 256 128 256 C 188.034 256 236.83 207.204 236.83 147.17 C 236.901 112.387 220.47 81.303 194.934 61.386 L 194.934 61.386 Z  M 200.127 34.641 L 200.269 34.498 L 211.223 41.896 L 204.537 51.072 L 204.394 51.214 L 193.44 43.817 L 200.127 34.641 Z  M 113.987 22.762 C 113.201 22.762 112.564 22.125 112.564 21.339 L 112.564 9.958 C 112.564 9.176 113.205 8.536 113.987 8.536 L 142.084 8.536 C 142.869 8.536 143.506 9.173 143.506 9.958 L 143.506 21.339 C 143.506 22.125 142.869 22.762 142.084 22.762 L 113.987 22.762 Z  M 128 247.464 C 72.66 247.464 27.705 202.438 27.705 147.17 C 27.705 91.901 72.731 46.875 128 46.875 C 183.269 46.875 228.294 91.901 228.294 147.17 C 228.294 202.438 183.34 247.464 128 247.464 Z  M 217.98 147.241 C 217.98 196.961 177.72 237.221 128 237.221 C 78.279 237.221 38.019 196.961 38.019 147.241 C 38.019 137.923 39.371 128.96 42.003 120.567 L 128 149.517 L 128 57.189 C 177.72 57.189 217.98 97.52 217.98 147.241 L 217.98 147.241 Z " fill="rgb(178,181,190)"/></g></svg>